<svg width="96" height="96" viewBox="0 0 96 96" fill="none" xmlns="http://www.w3.org/2000/svg">
<rect width="96" height="96" rx="48" fill="#F0AC2E"/>
<path d="M17.04 75C22.08 71.48 27.08 68.78 32.04 66.9C37 65.02 42.32 64.08 48 64.08C53.68 64.08 59.02 65.02 64.02 66.9C69.02 68.78 74.04 71.48 79.08 75C82.6 70.68 85.1 66.32 86.58 61.92C88.06 57.52 88.8 52.88 88.8 48C88.8 36.4 84.9 26.7 77.1 18.9C69.3 11.1 59.6 7.2 48 7.2C36.4 7.2 26.7 11.1 18.9 18.9C11.1 26.7 7.2 36.4 7.2 48C7.2 52.88 7.96 57.52 9.48 61.92C11 66.32 13.52 70.68 17.04 75ZM47.9772 51.6C43.3524 51.6 39.46 50.0124 36.3 46.8372C33.14 43.6628 31.56 39.7628 31.56 35.1372C31.56 30.5124 33.1476 26.62 36.3228 23.46C39.4972 20.3 43.3972 18.72 48.0228 18.72C52.6476 18.72 56.54 20.3076 59.7 23.4828C62.86 26.6572 64.44 30.5572 64.44 35.1828C64.44 39.8076 62.8524 43.7 59.6772 46.86C56.5028 50.02 52.6028 51.6 47.9772 51.6ZM48.0564 96C41.4588 96 35.24 94.74 29.4 92.22C23.56 89.7 18.46 86.26 14.1 81.9C9.74 77.54 6.3 72.4492 3.78 66.6276C1.26 60.8068 0 54.5868 0 47.9676C0 41.3492 1.26 35.14 3.78 29.34C6.3 23.54 9.74 18.46 14.1 14.1C18.46 9.74 23.5508 6.3 29.3724 3.78C35.1932 1.26 41.4132 0 48.0324 0C54.6508 0 60.86 1.26 66.66 3.78C72.46 6.3 77.54 9.74 81.9 14.1C86.26 18.46 89.7 23.5412 92.22 29.3436C94.74 35.146 96 41.346 96 47.9436C96 54.5412 94.74 60.76 92.22 66.6C89.7 72.44 86.26 77.54 81.9 81.9C77.54 86.26 72.4588 89.7 66.6564 92.22C60.854 94.74 54.654 96 48.0564 96Z" fill="black"/>
</svg>
