<svg width="96" height="96" viewBox="0 0 96 96" fill="none" xmlns="http://www.w3.org/2000/svg">
<rect width="96" height="96" rx="48" fill="#F02E2E"/>
<path d="M48 96C41.36 96 35.12 94.74 29.28 92.22C23.44 89.7 18.36 86.28 14.04 81.96C9.72 77.64 6.3 72.56 3.78 66.72C1.26 60.88 0 54.64 0 48C0 41.36 1.26 35.12 3.78 29.28C6.3 23.44 9.72 18.36 14.04 14.04C18.36 9.72 23.44 6.3 29.28 3.78C35.12 1.26 41.36 0 48 0C54.64 0 60.88 1.26 66.72 3.78C72.56 6.3 77.64 9.72 81.96 14.04C86.28 18.36 89.7 23.44 92.22 29.28C94.74 35.12 96 41.36 96 48C96 54.64 94.74 60.88 92.22 66.72C89.7 72.56 86.28 77.64 81.96 81.96C77.64 86.28 72.56 89.7 66.72 92.22C60.88 94.74 54.64 96 48 96ZM48 86.4C58.72 86.4 67.8 82.68 75.24 75.24C82.68 67.8 86.4 58.72 86.4 48C86.4 37.28 82.68 28.2 75.24 20.76C67.8 13.32 58.72 9.6 48 9.6C37.28 9.6 28.2 13.32 20.76 20.76C13.32 28.2 9.6 37.28 9.6 48C9.6 58.72 13.32 67.8 20.76 75.24C28.2 82.68 37.28 86.4 48 86.4ZM48 76.8C56 76.8 62.8 74 68.4 68.4C74 62.8 76.8 56 76.8 48C76.8 43.92 76.04 40.14 74.52 36.66C73 33.18 70.96 30.16 68.4 27.6L61.56 34.44C63.32 36.2 64.7 38.24 65.7 40.56C66.7 42.88 67.2 45.36 67.2 48C67.2 53.28 65.32 57.8 61.56 61.56C57.8 65.32 53.28 67.2 48 67.2C42.72 67.2 38.2 65.32 34.44 61.56C30.68 57.8 28.8 53.28 28.8 48C28.8 45.36 29.3 42.88 30.3 40.56C31.3 38.24 32.68 36.2 34.44 34.44L27.6 27.6C25.04 30.16 23 33.18 21.48 36.66C19.96 40.14 19.2 43.92 19.2 48C19.2 56 22 62.8 27.6 68.4C33.2 74 40 76.8 48 76.8ZM43.2 48H52.8V19.2H43.2V48Z" fill="black"/>
</svg>
